<?xml version="1.0" encoding="iso-8859-1"?>
<!-- Generator: Adobe Illustrator 19.0.0, SVG Export Plug-In . SVG Version: 6.00 Build 0)  -->
<svg version="1.1" id="Capa_1" xmlns="http://www.w3.org/2000/svg" xmlns:xlink="http://www.w3.org/1999/xlink" x="0px" y="0px"
	 viewBox="0 0 512 512" style="enable-background:new 0 0 512 512;" xml:space="preserve">
<g>
	<g>
		<rect x="376" y="264" width="16" height="16"/>
	</g>
</g>
<g>
	<g>
		<rect x="184" y="248" width="16" height="16"/>
	</g>
</g>
<g>
	<g>
		<rect x="216" y="248" width="16" height="16"/>
	</g>
</g>
<g>
	<g>
		<rect x="280" y="248" width="16" height="16"/>
	</g>
</g>
<g>
	<g>
		<rect x="312" y="248" width="16" height="16"/>
	</g>
</g>
<g>
	<g>
		<rect x="184" y="280" width="16" height="16"/>
	</g>
</g>
<g>
	<g>
		<rect x="216" y="280" width="16" height="16"/>
	</g>
</g>
<g>
	<g>
		<rect x="280" y="280" width="16" height="16"/>
	</g>
</g>
<g>
	<g>
		<rect x="312" y="280" width="16" height="16"/>
	</g>
</g>
<g>
	<g>
		<rect x="184" y="312" width="16" height="16"/>
	</g>
</g>
<g>
	<g>
		<rect x="216" y="312" width="16" height="16"/>
	</g>
</g>
<g>
	<g>
		<rect x="280" y="312" width="16" height="16"/>
	</g>
</g>
<g>
	<g>
		<rect x="312" y="312" width="16" height="16"/>
	</g>
</g>
<g>
	<g>
		<rect x="184" y="344" width="16" height="16"/>
	</g>
</g>
<g>
	<g>
		<rect x="216" y="344" width="16" height="16"/>
	</g>
</g>
<g>
	<g>
		<rect x="280" y="344" width="16" height="16"/>
	</g>
</g>
<g>
	<g>
		<rect x="312" y="344" width="16" height="16"/>
	</g>
</g>
<g>
	<g>
		<rect x="408" y="264" width="16" height="16"/>
	</g>
</g>
<g>
	<g>
		<rect x="440" y="264" width="16" height="16"/>
	</g>
</g>
<g>
	<g>
		<rect x="376" y="296" width="16" height="16"/>
	</g>
</g>
<g>
	<g>
		<rect x="408" y="296" width="16" height="16"/>
	</g>
</g>
<g>
	<g>
		<rect x="440" y="296" width="16" height="16"/>
	</g>
</g>
<g>
	<g>
		<rect x="376" y="328" width="16" height="16"/>
	</g>
</g>
<g>
	<g>
		<rect x="408" y="328" width="16" height="16"/>
	</g>
</g>
<g>
	<g>
		<rect x="440" y="328" width="16" height="16"/>
	</g>
</g>
<g>
	<g>
		<rect x="376" y="360" width="16" height="16"/>
	</g>
</g>
<g>
	<g>
		<rect x="408" y="360" width="16" height="16"/>
	</g>
</g>
<g>
	<g>
		<rect x="440" y="360" width="16" height="16"/>
	</g>
</g>
<g>
	<g>
		<rect x="376" y="392" width="16" height="16"/>
	</g>
</g>
<g>
	<g>
		<rect x="408" y="392" width="16" height="16"/>
	</g>
</g>
<g>
	<g>
		<rect x="440" y="392" width="16" height="16"/>
	</g>
</g>
<g>
	<g>
		<rect x="56" y="264" width="16" height="16"/>
	</g>
</g>
<g>
	<g>
		<rect x="88" y="264" width="16" height="16"/>
	</g>
</g>
<g>
	<g>
		<rect x="120" y="264" width="16" height="16"/>
	</g>
</g>
<g>
	<g>
		<rect x="56" y="296" width="16" height="16"/>
	</g>
</g>
<g>
	<g>
		<rect x="88" y="296" width="16" height="16"/>
	</g>
</g>
<g>
	<g>
		<rect x="120" y="296" width="16" height="16"/>
	</g>
</g>
<g>
	<g>
		<rect x="56" y="328" width="16" height="16"/>
	</g>
</g>
<g>
	<g>
		<rect x="88" y="328" width="16" height="16"/>
	</g>
</g>
<g>
	<g>
		<rect x="120" y="328" width="16" height="16"/>
	</g>
</g>
<g>
	<g>
		<rect x="56" y="360" width="16" height="16"/>
	</g>
</g>
<g>
	<g>
		<rect x="88" y="360" width="16" height="16"/>
	</g>
</g>
<g>
	<g>
		<rect x="120" y="360" width="16" height="16"/>
	</g>
</g>
<g>
	<g>
		<rect x="56" y="392" width="16" height="16"/>
	</g>
</g>
<g>
	<g>
		<rect x="88" y="392" width="16" height="16"/>
	</g>
</g>
<g>
	<g>
		<rect x="120" y="392" width="16" height="16"/>
	</g>
</g>
<g>
	<g>
		<rect x="24" y="136" width="16" height="16"/>
	</g>
</g>
<g>
	<g>
		<rect x="112" y="104" width="16" height="16"/>
	</g>
</g>
<g>
	<g>
		<rect x="456" y="144" width="16" height="16"/>
	</g>
</g>
<g>
	<g>
		<rect x="128" y="16" width="16" height="16"/>
	</g>
</g>
<g>
	<g>
		<rect x="200" y="64" width="16" height="16"/>
	</g>
</g>
<g>
	<g>
		<rect x="352" y="104" width="16" height="16"/>
	</g>
</g>
<g>
	<g>
		<rect x="368" y="32" width="16" height="16"/>
	</g>
</g>
<g>
	<g>
		<rect x="440" y="8" width="16" height="16"/>
	</g>
</g>
<g>
	<g>
		<path d="M504,496h-16V240c0-4.418-3.582-8-8-8H360v-59.36l4,2.32c3.844,2.209,8.751,0.884,10.96-2.96
			c2.209-3.844,0.884-8.751-2.96-10.96L264,99.36V64h40c4.418,0,8-3.582,8-8V16c0-4.418-3.582-8-8-8h-48c-4.418,0-8,3.582-8,8v83.36
			l-108,61.68c-3.844,2.209-5.169,7.116-2.96,10.96c2.209,3.844,7.116,5.169,10.96,2.96l4-2.32V232H32c-4.418,0-8,3.582-8,8v256H8
			c-4.418,0-8,3.582-8,8s3.582,8,8,8h496c4.418,0,8-3.582,8-8S508.418,496,504,496z M264,24h32v24h-32V24z M152,496H40v-16h112V496z
			 M152,464H40v-16h112V464z M152,432H40V248h112V432z M280,496h-48v-96h48V496z M344,496h-48v-96h8c4.418,0,8-3.582,8-8
			s-3.582-8-8-8h-96c-4.418,0-8,3.582-8,8s3.582,8,8,8h8v96h-48V240v-76.48l88-50.32l88,50.32V496z M472,496H360v-16h112V496z
			 M472,464H360v-16h112V464z M472,432H360V248h112V432z"/>
	</g>
</g>
<g>
	<g>
		<path d="M256,160c-17.673,0-32,14.327-32,32s14.327,32,32,32c17.673,0,32-14.327,32-32S273.673,160,256,160z M256,208
			c-8.837,0-16-7.163-16-16s7.163-16,16-16s16,7.163,16,16S264.837,208,256,208z"/>
	</g>
</g>
<g>
	<g>
		<path d="M47.28,32.72C43.774,13.778,27.264,0.025,8,0C3.582,0,0,3.582,0,8s3.582,8,8,8c13.255,0,24,10.745,24,24
			c0,4.418,3.582,8,8,8c13.255,0,24,10.745,24,24c0,4.418,3.582,8,8,8s8-3.582,8-8C79.975,52.736,66.222,36.226,47.28,32.72z"/>
	</g>
</g>
<g>
	<g>
		<path d="M504,40c-19.264,0.025-35.774,13.778-39.28,32.72C445.778,76.226,432.025,92.736,432,112c0,4.418,3.582,8,8,8s8-3.582,8-8
			c0-13.255,10.745-24,24-24c4.418,0,8-3.582,8-8c0-13.255,10.745-24,24-24c4.418,0,8-3.582,8-8S508.418,40,504,40z"/>
	</g>
</g>
<g>
</g>
<g>
</g>
<g>
</g>
<g>
</g>
<g>
</g>
<g>
</g>
<g>
</g>
<g>
</g>
<g>
</g>
<g>
</g>
<g>
</g>
<g>
</g>
<g>
</g>
<g>
</g>
<g>
</g>
</svg>
